<svg width="75" height="25" viewBox="0 0 75 25" fill="none" xmlns="http://www.w3.org/2000/svg">
<mask id="mask0_246_300" style="mask-type:alpha" maskUnits="userSpaceOnUse" x="57" y="0" width="18" height="25">
<path d="M57.9541 0.0606384H74.7621V24.4569H57.9541V0.0606384Z" fill="white"/>
</mask>
<g mask="url(#mask0_246_300)">
<path d="M73.9877 0.144659C74.418 0.144659 74.7746 0.39664 74.7746 0.828644V4.57268C74.7746 4.99268 74.4303 5.34069 73.9877 5.34069H69.549C69.2908 5.34069 69.1187 5.50869 69.1187 5.76069V23.5209C69.1187 23.9409 68.7744 24.2889 68.3318 24.2889H64.4956C64.0652 24.2889 63.7087 23.9529 63.7087 23.5209V5.84469C63.7087 5.59269 63.5365 5.42469 63.2783 5.42469H58.8396C58.4093 5.42469 58.0527 5.08868 58.0527 4.65668V0.912645C58.0527 0.492641 58.397 0.144638 58.8396 0.144638L73.9877 0.144659Z" fill="#2E2F47"/>
</g>
<path d="M9.87735 19.7162H6.31166C6.13952 19.7162 5.96738 19.5482 5.96738 19.3802V14.6161C5.96738 14.4481 6.13952 14.2801 6.31166 14.2801H9.87735C11.3528 14.2801 12.3979 15.6361 12.3979 17.0042C12.3979 18.3722 11.4512 19.7162 9.87735 19.7162ZM5.95509 5.26805C5.95509 5.10005 6.12722 4.93205 6.29936 4.93205H9.69292C10.9102 4.93205 12.0414 6.03606 12.0414 7.22407C12.0414 8.41208 10.9102 9.60009 9.69292 9.60009H6.31166C6.13952 9.60009 5.96738 9.43209 5.96738 9.26409V5.26805H5.95509ZM15.3611 12.2401C15.189 12.0721 15.189 11.8201 15.3611 11.6401C16.6645 10.3681 17.1932 8.74809 17.1932 7.05607C17.1932 3.22803 14.1439 0 9.79128 0H3.34844C2.04512 0 1 1.02001 1 2.37602V22.3562C1 23.6282 2.04512 24.7322 3.34844 24.7322H9.70521C14.4021 24.7322 17.3653 21.7562 17.3653 17.0882C17.4514 15.2161 16.7628 13.3441 15.3611 12.2401Z" fill="#2E2F47"/>
<path d="M34.8738 19.5968H26.599C26.3408 19.5968 26.1686 19.4288 26.1686 19.1768V15.7808C26.1686 15.5288 26.3408 15.3608 26.599 15.3608H34.4312C34.8615 15.3608 35.3042 15.0248 35.3042 14.5088V10.6807C35.3042 10.2607 34.9599 9.82873 34.4312 9.82873H26.599C26.3408 9.82873 26.1686 9.66073 26.1686 9.40873V6.01269C26.1686 5.76069 26.3408 5.59269 26.599 5.59269H34.7017C35.132 5.59269 35.5747 5.25669 35.5747 4.74068V0.912647C35.5747 0.492643 35.2304 0.0606384 34.7017 0.0606384H22.7751C21.5578 0.144639 20.5127 1.16465 20.5127 2.43666V22.3209C20.5127 23.5929 21.6439 24.6969 22.9472 24.6969H34.7878C35.2181 24.6969 35.6608 24.3609 35.6608 23.8449V20.0168C35.7468 19.9328 35.3903 19.5968 34.8738 19.5968Z" fill="#2E2F47"/>
<path d="M49.8498 14.9641H46.8866C46.6284 14.9641 46.4563 14.7121 46.4563 14.4601L48.1162 6.30006C48.1162 6.21606 48.2022 6.13206 48.2883 6.13206C48.3744 6.13206 48.4605 6.21606 48.4605 6.30006L50.1203 14.4601C50.2925 14.7001 50.022 14.9641 49.8498 14.9641ZM57.7804 23.6282L51.854 1.78802C51.5958 0.768006 50.6368 0.0839996 49.5916 0.0839996H47.0711C46.0259 0.0839996 45.0669 0.768006 44.8087 1.78802L38.8823 23.7122C38.7101 24.2162 39.1405 24.7322 39.6692 24.7322H43.6775C44.0218 24.7322 44.3783 24.4802 44.4644 24.1322L45.4235 20.5682C45.5095 20.3162 45.6817 20.1482 45.9399 20.1482H50.6368C50.895 20.1482 51.0671 20.3162 51.1532 20.5682L52.1983 24.1322C52.2844 24.4682 52.6286 24.7322 52.9852 24.7322H56.9935C57.5222 24.6482 57.9526 24.1442 57.7804 23.6282Z" fill="#2E2F47"/>
</svg>
