<svg width="75" height="25" viewBox="0 0 75 25" fill="none" xmlns="http://www.w3.org/2000/svg">
<g clip-path="url(#clip0_246_283)">
<path fill-rule="evenodd" clip-rule="evenodd" d="M31.25 12.5V0.224998H34.375V6.59375C35.5188 5.8125 36.9 5.35625 38.3937 5.35625C42.3375 5.35625 45.5375 8.55625 45.5375 12.5C45.5375 16.4437 42.3375 19.6437 38.3937 19.6437C34.45 19.6437 31.25 16.4437 31.25 12.5ZM38.3937 16.5187C36.175 16.5187 34.375 14.7187 34.375 12.5C34.375 10.2812 36.175 8.48125 38.3937 8.48125C40.6125 8.48125 42.4125 10.2812 42.4125 12.5C42.4125 14.7187 40.6125 16.5187 38.3937 16.5187Z" fill="#EEEEEE"/>
<path fill-rule="evenodd" clip-rule="evenodd" d="M26.5629 18.4062V19.4187H29.6879V12.5C29.6879 8.55625 26.4879 5.35625 22.5441 5.35625C18.6004 5.35625 15.4004 8.55625 15.4004 12.5C15.4004 16.4437 18.6004 19.6437 22.5441 19.6437C24.0316 19.6437 25.4191 19.1875 26.5629 18.4062ZM18.5254 12.5C18.5254 10.2812 20.3254 8.48125 22.5441 8.48125C24.7629 8.48125 26.5629 10.2812 26.5629 12.5C26.5629 14.7187 24.7629 16.5187 22.5441 16.5187C20.3254 16.5187 18.5254 14.7187 18.5254 12.5Z" fill="#EEEEEE"/>
<path d="M7.14375 8.48125C4.925 8.48125 3.125 10.2812 3.125 12.5C3.125 14.7187 4.925 16.5187 7.14375 16.5187C8.80625 16.5187 10.2375 15.5062 10.8437 14.0625H14.1125C13.4 17.2562 10.55 19.6437 7.14375 19.6437C3.2 19.6437 0 16.4437 0 12.5C0 8.55625 3.2 5.35625 7.14375 5.35625C10.55 5.35625 13.4 7.74375 14.1125 10.9375H10.8437C10.2375 9.49375 8.80625 8.48125 7.14375 8.48125Z" fill="#EEEEEE"/>
<path d="M47.3184 5.58125V19.4188H50.4434V5.58125H47.3184Z" fill="#EEEEEE"/>
<path d="M61.7748 0.4625C61.1123 0.1625 60.3748 0 59.5998 0C56.6436 0 54.2436 2.4 54.2436 5.35625V5.58125H52.2373V8.70625H54.2436V19.4188H57.3686V8.70625H61.3873L65.7873 18.5938L64.9186 20.55C64.4186 21.675 63.0998 22.1812 61.9686 21.6812L60.6998 24.5375C63.3998 25.7437 66.5686 24.525 67.7748 21.825L74.9998 5.58125H71.5811L67.4936 14.75L64.2373 7.4375C63.7186 6.275 62.5811 5.58125 61.3811 5.58125H57.3623V5.35625C57.3623 4.125 58.3623 3.125 59.5936 3.125C59.9186 3.125 60.2248 3.19375 60.4998 3.31875L61.7748 0.4625Z" fill="#EEEEEE"/>
<path d="M50.6688 1.7875C50.6688 2.775 49.8687 3.575 48.8812 3.575C47.8937 3.575 47.0938 2.775 47.0938 1.7875C47.0938 0.8 47.8937 0 48.8812 0C49.8687 0 50.6688 0.8 50.6688 1.7875Z" fill="#EEEEEE"/>
</g>
<defs>
<clipPath id="clip0_246_283">
<rect width="75" height="25" fill="white"/>
</clipPath>
</defs>
</svg>
