<svg width="78" height="25" viewBox="0 0 78 25" fill="none" xmlns="http://www.w3.org/2000/svg">
<path d="M36.9307 5.08037H41.6277C46.3541 5.08037 50.1117 7.92193 50.1117 12.7153C50.1117 17.9392 46.8825 20.6085 41.6277 20.6085H36.9307V5.08037ZM39.1911 18.6567H41.569C45.4734 18.6567 47.6458 16.8197 47.6458 12.8014C47.6458 9.18484 45.1211 7.03215 41.8332 7.03215H39.1618V18.6567H39.1911Z" fill="#EEEEEE"/>
<path d="M55.3955 6.71642H52.9883V4.3628H55.3955V6.71642ZM53.1057 9.27095H55.2487V20.6372H53.1057V9.27095Z" fill="#EEEEEE"/>
<path d="M59.2412 5.08037H63.9382C68.6646 5.08037 72.4222 7.92193 72.4222 12.7153C72.4222 17.9392 69.193 20.6085 63.9382 20.6085H59.2412V5.08037ZM61.531 18.6567H63.9089C67.8133 18.6567 69.9857 16.8197 69.9857 12.8014C69.9857 9.18484 67.461 7.03215 64.1731 7.03215H61.5017V18.6567H61.531Z" fill="#EEEEEE"/>
<path d="M77.707 6.71642H75.2998V4.3628H77.707V6.71642ZM75.4466 9.27095H77.5896V20.6372H75.4466V9.27095Z" fill="#EEEEEE"/>
<path fill-rule="evenodd" clip-rule="evenodd" d="M15.7941 19.3456C21.0783 19.1734 25.2469 15.0689 25.3056 9.98852V5.59701H31.1182V10.4478C31.0008 18.341 23.9846 24.5408 15.7941 24.713C7.45691 24.6556 0.382015 18.3984 0.293945 10.4478V1.75086C0.293945 0.861076 0.881074 0.287025 1.76177 0.287025H25.3056V5.59701H6.84043C6.37072 5.59701 6.07716 5.88404 6.07716 6.34328V9.90241C6.13587 15.0402 10.3926 19.2882 15.7941 19.3456Z" fill="#EEEEEE"/>
</svg>
