<svg width="70" height="25" viewBox="0 0 70 25" fill="none" xmlns="http://www.w3.org/2000/svg">
<path d="M4.02733 17.8547C4.32315 18.6623 4.73269 19.3528 5.25605 19.9263C5.7794 20.4998 6.39942 20.9387 7.1161 21.243C7.83287 21.5474 8.61216 21.6995 9.45405 21.6995C10.2732 21.6995 11.0411 21.5415 11.7579 21.2254C12.4746 20.9094 13.1003 20.4646 13.635 19.8912C14.1697 19.3176 14.585 18.633 14.8808 17.8371C15.1766 17.0412 15.3245 16.1518 15.3245 15.1686V0H18.9081V24.5787H15.3586V22.2963C14.5622 23.1624 13.6236 23.8295 12.5428 24.2978C11.462 24.7659 10.296 25 9.04451 25C7.77026 25 6.58142 24.7717 5.47785 24.3153C4.37435 23.8588 3.41864 23.2093 2.61096 22.3666C1.80327 21.5238 1.16611 20.5116 0.699693 19.3294C0.233206 18.1473 0 16.8306 0 15.3792V0H3.58365V15.1686C3.58365 16.1518 3.73152 17.0471 4.02733 17.8547Z" fill="#EEEEEE"/>
<path d="M25.0858 0V8.95364C25.8821 8.13436 26.8037 7.48484 27.8503 7.00493C28.897 6.52502 30.0347 6.2851 31.2633 6.2851C32.5376 6.2851 33.732 6.53084 34.847 7.02241C35.9619 7.51398 36.9288 8.18113 37.748 9.02387C38.5672 9.86662 39.2157 10.8614 39.6935 12.0084C40.1713 13.1555 40.4102 14.3727 40.4102 15.6601C40.4102 16.9475 40.1713 18.1589 39.6935 19.2942C39.2157 20.4295 38.5672 21.4186 37.748 22.2611C36.9288 23.1039 35.9619 23.771 34.847 24.2626C33.732 24.7542 32.5375 24.9999 31.2633 24.9999C30.0346 24.9999 28.8913 24.76 27.8333 24.2801C26.7752 23.8003 25.848 23.1507 25.0516 22.3314V24.5786H21.6387V0H25.0858ZM25.4783 18.0829C25.7854 18.832 26.2121 19.4874 26.7582 20.0492C27.3043 20.611 27.9413 21.0558 28.6694 21.3835C29.3976 21.7112 30.1826 21.8751 31.0245 21.8751C31.8436 21.8751 32.6172 21.7112 33.3453 21.3835C34.0734 21.0558 34.7047 20.6111 35.2395 20.0492C35.7742 19.4875 36.2008 18.832 36.5194 18.0829C36.8379 17.3338 36.9972 16.5263 36.9972 15.6601C36.9972 14.794 36.8379 13.9806 36.5194 13.2198C36.2008 12.459 35.7742 11.7978 35.2395 11.236C34.7048 10.6742 34.0734 10.2353 33.3453 9.91929C32.6171 9.60331 31.8435 9.44521 31.0245 9.44521C30.2054 9.44521 29.4317 9.60323 28.7036 9.91929C27.9756 10.2353 27.3385 10.6742 26.7923 11.236C26.2463 11.7978 25.8139 12.459 25.4954 13.2198C25.1769 13.9806 25.0176 14.794 25.0176 15.6601C25.0175 16.5263 25.1711 17.3338 25.4783 18.0829Z" fill="#EEEEEE"/>
<path d="M42.3543 12.0436C42.8094 10.92 43.4352 9.93103 44.2315 9.07663C45.0278 8.22223 45.9721 7.54925 47.0643 7.05769C48.1565 6.56612 49.3397 6.32037 50.6138 6.32037C51.8653 6.32037 53.0257 6.55446 54.0952 7.02257C55.1645 7.49075 56.086 8.14035 56.8596 8.97136C57.6333 9.80229 58.2363 10.7855 58.6685 11.9208C59.1009 13.0561 59.317 14.2909 59.317 15.6252V16.7839H45.153C45.2669 17.5096 45.4944 18.1825 45.8357 18.8028C46.177 19.4231 46.6036 19.9615 47.1155 20.4179C47.6275 20.8745 48.2077 21.2315 48.8562 21.4889C49.5047 21.7463 50.1929 21.8752 50.921 21.8752C52.9917 21.8752 54.664 20.9973 55.9382 19.2417L58.4297 21.1377C57.5651 22.3315 56.4957 23.2679 55.2215 23.9467C53.9473 24.6255 52.5138 24.965 50.9211 24.965C49.6241 24.965 48.4126 24.7308 47.2863 24.2627C46.16 23.7946 45.1816 23.1391 44.3511 22.2963C43.5206 21.4536 42.8665 20.4646 42.3886 19.3294C41.9108 18.1941 41.6719 16.9593 41.6719 15.625C41.6717 14.361 41.8993 13.1672 42.3543 12.0436ZM47.1496 10.6566C46.1826 11.4876 45.5399 12.5937 45.2213 13.9747H55.8358C55.54 12.5937 54.9086 11.4876 53.9415 10.6566C52.9745 9.82567 51.8425 9.41017 50.5456 9.41017C49.2487 9.41017 48.1167 9.82567 47.1496 10.6566Z" fill="#EEEEEE"/>
<path d="M65.7679 11.0604C65.0398 11.8797 64.6757 12.9915 64.6757 14.3961V24.5787H61.2285V6.67139H64.6415V8.88348C65.0738 8.15782 65.637 7.58429 66.331 7.16295C67.0249 6.74154 67.8497 6.53084 68.8054 6.53084H69.9999V9.83142H68.5665C67.4289 9.83149 66.496 10.2411 65.7679 11.0604Z" fill="#EEEEEE"/>
</svg>
